<svg width="24" height="24" viewBox="0 0 24 24" fill="none" xmlns="http://www.w3.org/2000/svg">
<path d="M16.969 16.927C17.2235 17.1627 17.5232 17.3443 17.85 17.4607C18.1768 17.5771 18.5238 17.6258 18.87 17.604C19.4186 17.618 19.9566 17.4511 20.401 17.129C20.763 16.894 21.037 16.545 21.18 16.139H23.765C23.4889 17.2964 22.8168 18.3209 21.865 19.035C20.9506 19.6412 19.8706 19.9486 18.774 19.915C17.9912 19.9263 17.2143 19.779 16.49 19.482C15.8347 19.208 15.2468 18.7948 14.767 18.271C14.2907 17.721 13.9241 17.0848 13.687 16.397C13.4212 15.6276 13.2916 14.8178 13.304 14.004C13.299 13.204 13.433 12.409 13.7 11.655C14.0597 10.5945 14.7455 9.67485 15.6593 9.02755C16.5731 8.38026 17.6682 8.03845 18.788 8.05098C19.6148 8.03514 20.4322 8.22882 21.164 8.61398C21.825 8.97598 22.395 9.48398 22.832 10.099C23.2784 10.7439 23.5984 11.4677 23.775 12.232C23.969 13.053 24.038 13.898 23.98 14.74H16.281C16.218 15.53 16.465 16.314 16.969 16.927ZM6.947 4.08398C7.59532 4.0716 8.24273 4.13809 8.875 4.28198C9.40762 4.39827 9.91327 4.61478 10.365 4.91998C10.783 5.22298 11.113 5.63098 11.323 6.10198C11.564 6.68098 11.68 7.30498 11.664 7.93198C11.6923 8.62123 11.5162 9.30346 11.158 9.89298C10.7831 10.4505 10.2635 10.8954 9.655 11.18C10.4798 11.4032 11.1983 11.9126 11.682 12.617C12.146 13.364 12.379 14.232 12.352 15.111C12.3676 15.8117 12.223 16.5067 11.929 17.143C11.6573 17.6985 11.2589 18.1825 10.766 18.556C10.2594 18.9262 9.68887 19.1998 9.083 19.363C8.45552 19.5386 7.80659 19.6258 7.155 19.622H0V4.08398H6.947ZM6.712 16.984C7.02133 16.988 7.32667 16.955 7.628 16.885C7.90218 16.8242 8.1622 16.7115 8.394 16.553C8.622 16.395 8.805 16.182 8.928 15.934C9.07 15.617 9.136 15.271 9.119 14.925C9.14994 14.6091 9.10817 14.2903 8.99689 13.993C8.88561 13.6958 8.70777 13.4279 8.477 13.21C7.98734 12.85 7.38779 12.6715 6.781 12.705H3.241V16.984H6.712ZM20.347 11.017C20.1316 10.8015 19.8725 10.6348 19.5872 10.528C19.3018 10.4212 18.9969 10.3769 18.693 10.398C18.2895 10.3825 17.8888 10.4717 17.53 10.657C17.2461 10.8138 16.9955 11.0244 16.792 11.277C16.612 11.5141 16.4777 11.7827 16.396 12.069C16.322 12.309 16.2763 12.5536 16.259 12.803H21.028C20.9861 12.1533 20.7495 11.5312 20.349 11.018L20.347 11.017ZM6.534 10.369C7.0437 10.3901 7.54547 10.2375 7.957 9.93598C8.356 9.58098 8.564 9.05598 8.517 8.52298C8.5306 8.21595 8.46952 7.91021 8.339 7.63198C8.22808 7.41083 8.05636 7.22592 7.844 7.09898C7.62858 6.9593 7.38645 6.86599 7.133 6.82498C6.85799 6.77147 6.57812 6.747 6.298 6.75198H3.241V10.383H6.534V10.369ZM21.62 5.12198H15.644V6.64898H21.62V5.12198Z" fill="black"/>
</svg>
