<svg width="10" height="10" viewBox="0 0 10 10" fill="none" xmlns="http://www.w3.org/2000/svg">
<g clip-path="url(#clip0_331_58)">
<path d="M1.81143 1H0.333432C0.274781 0.999983 0.217163 1.01544 0.166397 1.04481C0.115631 1.07419 0.0735138 1.11643 0.0442982 1.16729C0.0150825 1.21815 -0.000197181 1.27581 1.92119e-06 1.33446C0.000201024 1.39312 0.0158719 1.45068 0.0454321 1.50133L4.7121 9.50133C4.74144 9.55169 4.78348 9.59347 4.83402 9.62251C4.88455 9.65155 4.94181 9.66684 5.0001 9.66684C5.05838 9.66684 5.11565 9.65155 5.16618 9.62251C5.21672 9.59347 5.25875 9.55169 5.2881 9.50133L9.95477 1.50133C9.98433 1.45068 10 1.39312 10.0002 1.33446C10.0004 1.27581 9.98511 1.21815 9.9559 1.16729C9.92668 1.11643 9.88457 1.07419 9.8338 1.04481C9.78303 1.01544 9.72542 0.999983 9.66677 1H8.18877L5.0001 6.31467L1.81143 1Z" fill="black"/>
<path d="M7.41153 1H5.4602L5.0002 1.92133L4.53953 1H2.58887L5.0002 5.01867L7.41153 1Z" fill="black"/>
</g>
<defs>
<clipPath id="clip0_331_58">
<rect width="10" height="10" fill="white"/>
</clipPath>
</defs>
</svg>
